<svg xmlns="http://www.w3.org/2000/svg" viewBox="0 0 16 16">
  <g fill="#fff">
    <path d="M11.08,6.77a4.15,4.15,0,0,0-1.26-3,4.15,4.15,0,0,0-3-1.26,4.15,4.15,0,0,0-3,1.26,4.15,4.15,0,0,0-1.26,3,4.15,4.15,0,0,0,1.26,3,4.15,4.15,0,0,0,3,1.26,4.15,4.15,0,0,0,3-1.26A4.15,4.15,0,0,0,11.08,6.77Zm4.92,8A1.23,1.23,0,0,1,14.77,16a1.14,1.14,0,0,1-.87-.37l-3.3-3.29a6.58,6.58,0,0,1-3.84,1.19A6.65,6.65,0,0,1,4.14,13,6.63,6.63,0,0,1,.53,9.4a6.75,6.75,0,0,1,0-5.26A6.63,6.63,0,0,1,4.14.53,6.75,6.75,0,0,1,9.4.53,6.63,6.63,0,0,1,13,4.14a6.65,6.65,0,0,1,.53,2.63,6.58,6.58,0,0,1-1.19,3.84l3.3,3.3A1.18,1.18,0,0,1,16,14.77Z"/>
  </g>
</svg>
